<svg xmlns="http://www.w3.org/2000/svg" width="980" height="620" viewBox="0 0 980 620" fill="none">
  <rect width="980" height="620" fill="#F8F6F1"/>
  <rect x="60" y="40" width="860" height="540" rx="28" fill="#FFFDF8" stroke="#1E3A34" stroke-width="2"/>

  <text x="90" y="90" fill="#1E3A34" font-family="Segoe UI, Arial, sans-serif" font-size="28" font-weight="700">
    Архитектура Blog API с кешированием
  </text>
  <text x="90" y="122" fill="#46625B" font-family="Segoe UI, Arial, sans-serif" font-size="18">
    Cache-aside для GET /api/v1/posts/{id}/ и инвалидации при update/delete
  </text>

  <rect x="100" y="180" width="180" height="84" rx="18" fill="#D7ECE5" stroke="#1E3A34" stroke-width="2"/>
  <text x="190" y="228" text-anchor="middle" fill="#1E3A34" font-family="Segoe UI, Arial, sans-serif" font-size="24" font-weight="700">Клиент</text>

  <rect x="390" y="180" width="200" height="84" rx="18" fill="#F7D9B8" stroke="#1E3A34" stroke-width="2"/>
  <text x="490" y="228" text-anchor="middle" fill="#1E3A34" font-family="Segoe UI, Arial, sans-serif" font-size="24" font-weight="700">Nginx</text>

  <rect x="700" y="180" width="180" height="84" rx="18" fill="#D7E4F7" stroke="#1E3A34" stroke-width="2"/>
  <text x="790" y="228" text-anchor="middle" fill="#1E3A34" font-family="Segoe UI, Arial, sans-serif" font-size="24" font-weight="700">Django API</text>
  <text x="790" y="252" text-anchor="middle" fill="#46625B" font-family="Segoe UI, Arial, sans-serif" font-size="16">(DRF)</text>

  <rect x="610" y="380" width="180" height="92" rx="18" fill="#E8D7F7" stroke="#1E3A34" stroke-width="2"/>
  <text x="700" y="430" text-anchor="middle" fill="#1E3A34" font-family="Segoe UI, Arial, sans-serif" font-size="22" font-weight="700">PostgreSQL</text>
  <text x="700" y="454" text-anchor="middle" fill="#46625B" font-family="Segoe UI, Arial, sans-serif" font-size="15">источник истины</text>

  <rect x="790" y="380" width="120" height="92" rx="18" fill="#F4C7CF" stroke="#1E3A34" stroke-width="2"/>
  <text x="850" y="430" text-anchor="middle" fill="#1E3A34" font-family="Segoe UI, Arial, sans-serif" font-size="22" font-weight="700">Redis</text>
  <text x="850" y="454" text-anchor="middle" fill="#46625B" font-family="Segoe UI, Arial, sans-serif" font-size="15">кеш</text>

  <path d="M280 222H390" stroke="#1E3A34" stroke-width="3" stroke-linecap="round"/>
  <path d="M590 222H700" stroke="#1E3A34" stroke-width="3" stroke-linecap="round"/>
  <path d="M790 264V380" stroke="#1E3A34" stroke-width="3" stroke-linecap="round"/>
  <path d="M820 264L850 380" stroke="#1E3A34" stroke-width="3" stroke-linecap="round"/>

  <polygon points="386,214 402,222 386,230" fill="#1E3A34"/>
  <polygon points="696,214 712,222 696,230" fill="#1E3A34"/>
  <polygon points="782,376 790,392 798,376" fill="#1E3A34"/>
  <polygon points="842,375 850,391 858,375" fill="#1E3A34"/>

  <rect x="110" y="320" width="400" height="200" rx="24" fill="#F3EFE5" stroke="#B5895C" stroke-width="2"/>
  <text x="140" y="360" fill="#7A4B1F" font-family="Segoe UI, Arial, sans-serif" font-size="22" font-weight="700">
    GET /api/v1/posts/{id}/
  </text>
  <text x="140" y="396" fill="#4B3C2A" font-family="Segoe UI, Arial, sans-serif" font-size="18">
    1. Проверка Redis по ключу post:{id}
  </text>
  <text x="140" y="426" fill="#4B3C2A" font-family="Segoe UI, Arial, sans-serif" font-size="18">
    2. Попадание в кеш -> вернуть готовые данные
  </text>
  <text x="140" y="456" fill="#4B3C2A" font-family="Segoe UI, Arial, sans-serif" font-size="18">
    3. Промах мимо кеша -> чтение из PostgreSQL
  </text>
  <text x="140" y="486" fill="#4B3C2A" font-family="Segoe UI, Arial, sans-serif" font-size="18">
    4. Сериализация и запись данных в Redis
  </text>

  <rect x="540" y="500" width="370" height="60" rx="18" fill="#E7F0D8" stroke="#50723C" stroke-width="2"/>
  <text x="725" y="538" text-anchor="middle" fill="#385528" font-family="Segoe UI, Arial, sans-serif" font-size="18" font-weight="700">
    PATCH / PUT / DELETE -> сразу удалить ключ Redis
  </text>
</svg>
